 0
SECTION
 2
ENTITIES
  0
POLYLINE
 8
Layer0
 66
     1
70
    8
 10
0.0
 20
 0.0
 30
0.0
  0
VERTEX
  8
MY3DLAYER
10
-309.88069359618936
20
-134.680001401362
30
-4.742477423558393e-06
 70
     32
  0
VERTEX
  8
MY3DLAYER
10
-309.88069359618936
20
-148.680001401362
30
-4.742477423558393e-06
 70
     32
  0
VERTEX
  8
MY3DLAYER
10
-309.8550281803108
20
-149.07157997802219
30
-4.742477423558393e-06
 70
     32
  0
VERTEX
  8
MY3DLAYER
10
-309.77847107505664
20
-149.45645853666957
30
-4.742477423558393e-06
 70
     32
  0
VERTEX
  8
MY3DLAYER
10
-309.6523321937233
20
-149.82805169845727
30
-4.742477423558393e-06
 70
     32
  0
VERTEX
  8
MY3DLAYER
10
-309.4787698075427
20
-150.18000140136203
30
-4.742477423558393e-06
 70
     32
  0
VERTEX
  8
MY3DLAYER
10
-309.26075361706313
20
-150.50628568838818
30
-4.742477423558393e-06
 70
     32
  0
VERTEX
  8
MY3DLAYER
10
-309.002013939749
20
-150.80132174492167
30
-4.742477423558393e-06
 70
     32
  0
VERTEX
  8
MY3DLAYER
10
-308.70697788321553
20
-151.06006142223575
30
-4.742477423558393e-06
 70
     32
  0
VERTEX
  8
MY3DLAYER
10
-308.3806935961895
20
-151.27807761271535
30
-4.742477423558393e-06
 70
     32
  0
VERTEX
  8
MY3DLAYER
10
-308.0287438932847
20
-151.4516399988959
30
-4.742477423558393e-06
 70
     32
  0
VERTEX
  8
MY3DLAYER
10
-307.6571507314969
20
-151.57777888022926
30
-4.742477423558393e-06
 70
     32
  0
VERTEX
  8
MY3DLAYER
10
-307.27227217284957
20
-151.65433598548347
30
-4.742477423558393e-06
 70
     32
  0
VERTEX
  8
MY3DLAYER
10
-306.8806935961894
20
-151.68000140136203
30
-4.742477423558393e-06
 70
     32
  0
VERTEX
  8
MY3DLAYER
10
-279.88069359618936
20
-151.680001401362
30
-4.74247741791846e-06
 70
     32
  0
VERTEX
  8
MY3DLAYER
10
-279.88069359618936
20
-160.68812173935623
30
-4.742477412278527e-06
 70
     32
  0
VERTEX
  8
MY3DLAYER
10
-279.85502818031074
20
-161.07970031601636
30
-4.742477412278527e-06
 70
     32
  0
VERTEX
  8
MY3DLAYER
10
-279.77847107505653
20
-161.46457887466377
30
-4.742477412278527e-06
 70
     32
  0
VERTEX
  8
MY3DLAYER
10
-279.65233219372317
20
-161.8361720364515
30
-4.742477412278527e-06
 70
     32
  0
VERTEX
  8
MY3DLAYER
10
-279.4787698075426
20
-162.18812173935623
30
-4.742477412278527e-06
 70
     32
  0
VERTEX
  8
MY3DLAYER
10
-279.260753617063
20
-162.51440602638237
30
-4.742477412278527e-06
 70
     32
  0
VERTEX
  8
MY3DLAYER
10
-279.002013939749
20
-162.80944208291584
30
-4.742477412278527e-06
 70
     32
  0
VERTEX
  8
MY3DLAYER
10
-278.7069778832155
20
-163.06818176022992
30
-4.742477412278527e-06
 70
     32
  0
VERTEX
  8
MY3DLAYER
10
-278.3806935961893
20
-163.28619795070952
30
-4.742477412278527e-06
 70
     32
  0
VERTEX
  8
MY3DLAYER
10
-278.02874389328457
20
-163.45976033689007
30
-4.74247741791846e-06
 70
     32
  0
VERTEX
  8
MY3DLAYER
10
-277.6571507314969
20
-163.58589921822343
30
-4.74247741791846e-06
 70
     32
  0
VERTEX
  8
MY3DLAYER
10
-277.27227217284945
20
-163.66245632347764
30
-4.74247741791846e-06
 70
     32
  0
VERTEX
  8
MY3DLAYER
10
-276.8806935961893
20
-163.6881217393562
30
-4.74247741791846e-06
 70
     32
  0
VERTEX
  8
MY3DLAYER
10
-262.88069359618925
20
-163.6881217393562
30
-4.742477412278527e-06
 70
     32
  0
VERTEX
  8
MY3DLAYER
10
-262.4891150195291
20
-163.66245632347764
30
-4.742477412278527e-06
 70
     32
  0
VERTEX
  8
MY3DLAYER
10
-262.10423646088174
20
-163.58589921822343
30
-4.742477412278527e-06
 70
     32
  0
VERTEX
  8
MY3DLAYER
10
-261.732643299094
20
-163.45976033689007
30
-4.742477412278527e-06
 70
     32
  0
VERTEX
  8
MY3DLAYER
10
-261.38069359618925
20
-163.28619795070952
30
-4.742477412278527e-06
 70
     32
  0
VERTEX
  8
MY3DLAYER
10
-261.0544093091631
20
-163.06818176022992
30
-4.742477412278527e-06
 70
     32
  0
VERTEX
  8
MY3DLAYER
10
-260.7593732526296
20
-162.80944208291587
30
-4.742477412278527e-06
 70
     32
  0
VERTEX
  8
MY3DLAYER
10
-260.5006335753156
20
-162.51440602638237
30
-4.742477412278527e-06
 70
     32
  0
VERTEX
  8
MY3DLAYER
10
-260.28261738483593
20
-162.18812173935623
30
-4.742477412278527e-06
 70
     32
  0
VERTEX
  8
MY3DLAYER
10
-260.10905499865544
20
-161.8361720364515
30
-4.742477412278527e-06
 70
     32
  0
VERTEX
  8
MY3DLAYER
10
-259.9829161173221
20
-161.46457887466377
30
-4.742477412278527e-06
 70
     32
  0
VERTEX
  8
MY3DLAYER
10
-259.9063590120678
20
-161.07970031601636
30
-4.742477412278527e-06
 70
     32
  0
VERTEX
  8
MY3DLAYER
10
-259.88069359618925
20
-160.68812173935623
30
-4.742477412278527e-06
 70
     32
  0
VERTEX
  8
MY3DLAYER
10
-259.88069359618925
20
-133.0799968399161
30
-4.742477412278527e-06
 70
     32
  0
VERTEX
  8
MY3DLAYER
10
-259.9063590120678
20
-132.68841826325593
30
-4.742477412278527e-06
 70
     32
  0
VERTEX
  8
MY3DLAYER
10
-259.9829161173221
20
-132.30353970460854
30
-4.742477412278527e-06
 70
     32
  0
VERTEX
  8
MY3DLAYER
10
-260.10905499865544
20
-131.93194654282084
30
-4.742477412278527e-06
 70
     32
  0
VERTEX
  8
MY3DLAYER
10
-260.28261738483593
20
-131.57999683991608
30
-4.742477412278527e-06
 70
     32
  0
VERTEX
  8
MY3DLAYER
10
-260.5006335753156
20
-131.2537125528899
30
-4.742477412278527e-06
 70
     32
  0
VERTEX
  8
MY3DLAYER
10
-260.7593732526296
20
-130.95867649635645
30
-4.742477412278527e-06
 70
     32
  0
VERTEX
  8
MY3DLAYER
10
-261.0544093091631
20
-130.6999368190424
30
-4.742477412278527e-06
 70
     32
  0
VERTEX
  8
MY3DLAYER
10
-261.38069359618925
20
-130.48192062856276
30
-4.742477412278527e-06
 70
     32
  0
VERTEX
  8
MY3DLAYER
10
-261.732643299094
20
-130.30835824238224
30
-4.742477412278527e-06
 70
     32
  0
VERTEX
  8
MY3DLAYER
10
-262.10423646088174
20
-130.18221936104888
30
-4.742477412278527e-06
 70
     32
  0
VERTEX
  8
MY3DLAYER
10
-262.4891150195291
20
-130.10566225579464
30
-4.742477412278527e-06
 70
     32
  0
VERTEX
  8
MY3DLAYER
10
-262.88069359618925
20
-130.0799968399161
30
-4.742477412278527e-06
 70
     32
  0
VERTEX
  8
MY3DLAYER
10
-279.88069359618936
20
-130.0799968399161
30
-4.74247741791846e-06
 70
     32
  0
VERTEX
  8
MY3DLAYER
10
-279.88069359618936
20
-131.680001401362
30
-4.74247741791846e-06
 70
     32
  0
VERTEX
  8
MY3DLAYER
10
-306.8806935961894
20
-131.68000140136198
30
-4.74247741791846e-06
 70
     32
  0
VERTEX
  8
MY3DLAYER
10
-307.27227217284957
20
-131.70566681724054
30
-4.74247741791846e-06
 70
     32
  0
VERTEX
  8
MY3DLAYER
10
-307.6571507314969
20
-131.78222392249478
30
-4.74247741791846e-06
 70
     32
  0
VERTEX
  8
MY3DLAYER
10
-308.0287438932847
20
-131.90836280382814
30
-4.74247741791846e-06
 70
     32
  0
VERTEX
  8
MY3DLAYER
10
-308.3806935961895
20
-132.08192519000866
30
-4.742477423558393e-06
 70
     32
  0
VERTEX
  8
MY3DLAYER
10
-308.70697788321553
20
-132.2999413804883
30
-4.742477423558393e-06
 70
     32
  0
VERTEX
  8
MY3DLAYER
10
-309.002013939749
20
-132.55868105780235
30
-4.742477423558393e-06
 70
     32
  0
VERTEX
  8
MY3DLAYER
10
-309.26075361706313
20
-132.85371711433584
30
-4.742477423558393e-06
 70
     32
  0
VERTEX
  8
MY3DLAYER
10
-309.4787698075427
20
-133.180001401362
30
-4.742477423558393e-06
 70
     32
  0
VERTEX
  8
MY3DLAYER
10
-309.6523321937233
20
-133.5319511042667
30
-4.742477423558393e-06
 70
     32
  0
VERTEX
  8
MY3DLAYER
10
-309.77847107505664
20
-133.90354426605444
30
-4.742477423558393e-06
 70
     32
  0
VERTEX
  8
MY3DLAYER
10
-309.8550281803108
20
-134.28842282470185
30
-4.742477423558393e-06
 70
     32
  0
VERTEX
  8
MY3DLAYER
10
-309.88069359618936
20
-134.680001401362
30
-4.742477423558393e-06
 70
     32
  0
SEQEND
  0
POLYLINE
 8
Layer0
 66
     1
70
    8
 10
0.0
 20
 0.0
 30
0.0
  0
VERTEX
  8
MY3DLAYER
10
-268.0422159651043
20
-147.51847903244703
30
-4.74247741791846e-06
 70
     32
  0
VERTEX
  8
MY3DLAYER
10
-268.5806935961893
20
-147.93166745120152
30
-4.74247741791846e-06
 70
     32
  0
VERTEX
  8
MY3DLAYER
10
-269.2077640789227
20
-148.19140854971357
30
-4.74247741791846e-06
 70
     32
  0
VERTEX
  8
MY3DLAYER
10
-269.88069359618925
20
-148.280001401362
30
-4.74247741791846e-06
 70
     32
  0
VERTEX
  8
MY3DLAYER
10
-270.55362311345584
20
-148.19140854971357
30
-4.74247741791846e-06
 70
     32
  0
VERTEX
  8
MY3DLAYER
10
-271.1806935961893
20
-147.93166745120152
30
-4.74247741791846e-06
 70
     32
  0
VERTEX
  8
MY3DLAYER
10
-271.7191712272743
20
-147.51847903244703
30
-4.74247741791846e-06
 70
     32
  0
VERTEX
  8
MY3DLAYER
10
-272.1323596460289
20
-146.980001401362
30
-4.74247741791846e-06
 70
     32
  0
VERTEX
  8
MY3DLAYER
10
-272.39210074454087
20
-146.35293091862854
30
-4.74247741791846e-06
 70
     32
  0
VERTEX
  8
MY3DLAYER
10
-272.4806935961893
20
-145.680001401362
30
-4.74247741791846e-06
 70
     32
  0
VERTEX
  8
MY3DLAYER
10
-272.39210074454087
20
-145.00707188409547
30
-4.74247741791846e-06
 70
     32
  0
VERTEX
  8
MY3DLAYER
10
-272.1323596460289
20
-144.380001401362
30
-4.74247741791846e-06
 70
     32
  0
VERTEX
  8
MY3DLAYER
10
-271.7191712272743
20
-143.84152377027698
30
-4.74247741791846e-06
 70
     32
  0
VERTEX
  8
MY3DLAYER
10
-271.1806935961893
20
-143.42833535152246
30
-4.74247741791846e-06
 70
     32
  0
VERTEX
  8
MY3DLAYER
10
-270.55362311345584
20
-143.16859425301044
30
-4.74247741791846e-06
 70
     32
  0
VERTEX
  8
MY3DLAYER
10
-269.88069359618925
20
-143.080001401362
30
-4.74247741791846e-06
 70
     32
  0
VERTEX
  8
MY3DLAYER
10
-269.2077640789227
20
-143.16859425301044
30
-4.74247741791846e-06
 70
     32
  0
VERTEX
  8
MY3DLAYER
10
-268.5806935961893
20
-143.42833535152246
30
-4.74247741791846e-06
 70
     32
  0
VERTEX
  8
MY3DLAYER
10
-268.0422159651043
20
-143.84152377027698
30
-4.74247741791846e-06
 70
     32
  0
VERTEX
  8
MY3DLAYER
10
-267.62902754634973
20
-144.380001401362
30
-4.74247741791846e-06
 70
     32
  0
VERTEX
  8
MY3DLAYER
10
-267.36928644783774
20
-145.00707188409547
30
-4.74247741791846e-06
 70
     32
  0
VERTEX
  8
MY3DLAYER
10
-267.28069359618934
20
-145.680001401362
30
-4.74247741791846e-06
 70
     32
  0
VERTEX
  8
MY3DLAYER
10
-267.36928644783774
20
-146.35293091862854
30
-4.74247741791846e-06
 70
     32
  0
VERTEX
  8
MY3DLAYER
10
-267.62902754634973
20
-146.980001401362
30
-4.74247741791846e-06
 70
     32
  0
VERTEX
  8
MY3DLAYER
10
-268.0422159651043
20
-147.51847903244703
30
-4.74247741791846e-06
 70
     32
  0
SEQEND
  0
POLYLINE
 8
Layer0
 66
     1
70
    8
 10
0.0
 20
 0.0
 30
0.0
  0
VERTEX
  8
MY3DLAYER
10
-287.71917122727444
20
-139.841523770277
30
-4.74247741791846e-06
 70
     32
  0
VERTEX
  8
MY3DLAYER
10
-287.18069359618937
20
-139.42833535152246
30
-4.74247741791846e-06
 70
     32
  0
VERTEX
  8
MY3DLAYER
10
-286.5536231134559
20
-139.16859425301047
30
-4.74247741791846e-06
 70
     32
  0
VERTEX
  8
MY3DLAYER
10
-285.8806935961894
20
-139.080001401362
30
-4.74247741791846e-06
 70
     32
  0
VERTEX
  8
MY3DLAYER
10
-285.2077640789228
20
-139.16859425301047
30
-4.74247741791846e-06
 70
     32
  0
VERTEX
  8
MY3DLAYER
10
-284.58069359618935
20
-139.42833535152246
30
-4.74247741791846e-06
 70
     32
  0
VERTEX
  8
MY3DLAYER
10
-284.0422159651044
20
-139.841523770277
30
-4.74247741791846e-06
 70
     32
  0
VERTEX
  8
MY3DLAYER
10
-283.6290275463498
20
-140.380001401362
30
-4.74247741791846e-06
 70
     32
  0
VERTEX
  8
MY3DLAYER
10
-283.3692864478378
20
-141.00707188409547
30
-4.74247741791846e-06
 70
     32
  0
VERTEX
  8
MY3DLAYER
10
-283.2806935961894
20
-141.680001401362
30
-4.74247741791846e-06
 70
     32
  0
VERTEX
  8
MY3DLAYER
10
-283.3692864478378
20
-142.35293091862857
30
-4.74247741791846e-06
 70
     32
  0
VERTEX
  8
MY3DLAYER
10
-283.6290275463498
20
-142.980001401362
30
-4.74247741791846e-06
 70
     32
  0
VERTEX
  8
MY3DLAYER
10
-284.0422159651044
20
-143.51847903244703
30
-4.74247741791846e-06
 70
     32
  0
VERTEX
  8
MY3DLAYER
10
-284.58069359618935
20
-143.93166745120155
30
-4.74247741791846e-06
 70
     32
  0
VERTEX
  8
MY3DLAYER
10
-285.2077640789228
20
-144.19140854971357
30
-4.74247741791846e-06
 70
     32
  0
VERTEX
  8
MY3DLAYER
10
-285.8806935961894
20
-144.28000140136203
30
-4.74247741791846e-06
 70
     32
  0
VERTEX
  8
MY3DLAYER
10
-286.5536231134559
20
-144.19140854971357
30
-4.74247741791846e-06
 70
     32
  0
VERTEX
  8
MY3DLAYER
10
-287.18069359618937
20
-143.93166745120155
30
-4.74247741791846e-06
 70
     32
  0
VERTEX
  8
MY3DLAYER
10
-287.71917122727444
20
-143.51847903244703
30
-4.74247741791846e-06
 70
     32
  0
VERTEX
  8
MY3DLAYER
10
-288.13235964602893
20
-142.980001401362
30
-4.74247741791846e-06
 70
     32
  0
VERTEX
  8
MY3DLAYER
10
-288.3921007445409
20
-142.35293091862857
30
-4.74247741791846e-06
 70
     32
  0
VERTEX
  8
MY3DLAYER
10
-288.4806935961894
20
-141.680001401362
30
-4.74247741791846e-06
 70
     32
  0
VERTEX
  8
MY3DLAYER
10
-288.3921007445409
20
-141.00707188409547
30
-4.74247741791846e-06
 70
     32
  0
VERTEX
  8
MY3DLAYER
10
-288.13235964602893
20
-140.380001401362
30
-4.74247741791846e-06
 70
     32
  0
VERTEX
  8
MY3DLAYER
10
-287.71917122727444
20
-139.841523770277
30
-4.74247741791846e-06
 70
     32
  0
SEQEND
  0
POLYLINE
 8
Layer0
 66
     1
70
    8
 10
0.0
 20
 0.0
 30
0.0
  0
VERTEX
  8
MY3DLAYER
10
-303.88069359618936
20
-144.28000140136203
30
-4.74247741791846e-06
 70
     32
  0
VERTEX
  8
MY3DLAYER
10
-304.55362311345596
20
-144.19140854971357
30
-4.74247741791846e-06
 70
     32
  0
VERTEX
  8
MY3DLAYER
10
-305.18069359618937
20
-143.93166745120155
30
-4.74247741791846e-06
 70
     32
  0
VERTEX
  8
MY3DLAYER
10
-305.7191712272744
20
-143.51847903244703
30
-4.74247741791846e-06
 70
     32
  0
VERTEX
  8
MY3DLAYER
10
-306.13235964602893
20
-142.980001401362
30
-4.74247741791846e-06
 70
     32
  0
VERTEX
  8
MY3DLAYER
10
-306.392100744541
20
-142.35293091862857
30
-4.74247741791846e-06
 70
     32
  0
VERTEX
  8
MY3DLAYER
10
-306.48069359618944
20
-141.680001401362
30
-4.74247741791846e-06
 70
     32
  0
VERTEX
  8
MY3DLAYER
10
-306.392100744541
20
-141.00707188409547
30
-4.74247741791846e-06
 70
     32
  0
VERTEX
  8
MY3DLAYER
10
-306.13235964602893
20
-140.380001401362
30
-4.74247741791846e-06
 70
     32
  0
VERTEX
  8
MY3DLAYER
10
-305.7191712272744
20
-139.841523770277
30
-4.74247741791846e-06
 70
     32
  0
VERTEX
  8
MY3DLAYER
10
-305.18069359618937
20
-139.42833535152246
30
-4.74247741791846e-06
 70
     32
  0
VERTEX
  8
MY3DLAYER
10
-304.55362311345596
20
-139.16859425301047
30
-4.74247741791846e-06
 70
     32
  0
VERTEX
  8
MY3DLAYER
10
-303.88069359618936
20
-139.080001401362
30
-4.74247741791846e-06
 70
     32
  0
VERTEX
  8
MY3DLAYER
10
-303.2077640789228
20
-139.16859425301047
30
-4.74247741791846e-06
 70
     32
  0
VERTEX
  8
MY3DLAYER
10
-302.5806935961894
20
-139.42833535152246
30
-4.74247741791846e-06
 70
     32
  0
VERTEX
  8
MY3DLAYER
10
-302.0422159651044
20
-139.841523770277
30
-4.74247741791846e-06
 70
     32
  0
VERTEX
  8
MY3DLAYER
10
-301.62902754634985
20
-140.380001401362
30
-4.74247741791846e-06
 70
     32
  0
VERTEX
  8
MY3DLAYER
10
-301.3692864478378
20
-141.00707188409547
30
-4.74247741791846e-06
 70
     32
  0
VERTEX
  8
MY3DLAYER
10
-301.28069359618945
20
-141.680001401362
30
-4.74247741791846e-06
 70
     32
  0
VERTEX
  8
MY3DLAYER
10
-301.3692864478378
20
-142.35293091862857
30
-4.74247741791846e-06
 70
     32
  0
VERTEX
  8
MY3DLAYER
10
-301.62902754634985
20
-142.980001401362
30
-4.74247741791846e-06
 70
     32
  0
VERTEX
  8
MY3DLAYER
10
-302.0422159651044
20
-143.51847903244703
30
-4.74247741791846e-06
 70
     32
  0
VERTEX
  8
MY3DLAYER
10
-302.5806935961894
20
-143.93166745120155
30
-4.74247741791846e-06
 70
     32
  0
VERTEX
  8
MY3DLAYER
10
-303.2077640789228
20
-144.19140854971357
30
-4.74247741791846e-06
 70
     32
  0
VERTEX
  8
MY3DLAYER
10
-303.88069359618936
20
-144.28000140136203
30
-4.74247741791846e-06
 70
     32
  0
SEQEND
 0
ENDSEC
 0
EOF
