 0
SECTION
 2
ENTITIES
  0
POLYLINE
 8
Layer0
 66
     1
70
    8
 10
0.0
 20
 0.0
 30
0.0
  0
VERTEX
  8
MY3DLAYER
10
-210.0127762608583
20
-148.18812173935623
30
-5.256039597060573e-06
 70
     32
  0
VERTEX
  8
MY3DLAYER
10
-183.0127762608583
20
-148.18812173935623
30
-5.256039597060573e-06
 70
     32
  0
VERTEX
  8
MY3DLAYER
10
-182.6211976841981
20
-148.16245632347764
30
-5.256039597060573e-06
 70
     32
  0
VERTEX
  8
MY3DLAYER
10
-182.23631912555072
20
-148.08589921822343
30
-5.256039597060573e-06
 70
     32
  0
VERTEX
  8
MY3DLAYER
10
-181.86472596376302
20
-147.9597603368901
30
-5.256039597060573e-06
 70
     32
  0
VERTEX
  8
MY3DLAYER
10
-181.5127762608583
20
-147.78619795070955
30
-5.256039597060573e-06
 70
     32
  0
VERTEX
  8
MY3DLAYER
10
-181.18649197383215
20
-147.56818176022995
30
-5.256039597060573e-06
 70
     32
  0
VERTEX
  8
MY3DLAYER
10
-180.89145591729863
20
-147.30944208291587
30
-5.256039597060573e-06
 70
     32
  0
VERTEX
  8
MY3DLAYER
10
-180.6327162399846
20
-147.01440602638237
30
-5.256039597060573e-06
 70
     32
  0
VERTEX
  8
MY3DLAYER
10
-180.414700049505
20
-146.68812173935623
30
-5.256039597060573e-06
 70
     32
  0
VERTEX
  8
MY3DLAYER
10
-180.24113766332442
20
-146.3361720364515
30
-5.256039597060573e-06
 70
     32
  0
VERTEX
  8
MY3DLAYER
10
-180.1149987819911
20
-145.9645788746638
30
-5.256039597060573e-06
 70
     32
  0
VERTEX
  8
MY3DLAYER
10
-180.03844167673688
20
-145.57970031601639
30
-5.256039597060573e-06
 70
     32
  0
VERTEX
  8
MY3DLAYER
10
-180.0127762608583
20
-145.18812173935623
30
-5.256039597060573e-06
 70
     32
  0
VERTEX
  8
MY3DLAYER
10
-180.0127762608583
20
-131.1881217393562
30
-5.256039597060573e-06
 70
     32
  0
VERTEX
  8
MY3DLAYER
10
-180.03844167673688
20
-130.79654316269605
30
-5.256039597060573e-06
 70
     32
  0
VERTEX
  8
MY3DLAYER
10
-180.1149987819911
20
-130.41166460404867
30
-5.256039597060573e-06
 70
     32
  0
VERTEX
  8
MY3DLAYER
10
-180.24113766332442
20
-130.04007144226094
30
-5.256039597060573e-06
 70
     32
  0
VERTEX
  8
MY3DLAYER
10
-180.414700049505
20
-129.6881217393562
30
-5.256039597060573e-06
 70
     32
  0
VERTEX
  8
MY3DLAYER
10
-180.6327162399846
20
-129.36183745233006
30
-5.256039597060573e-06
 70
     32
  0
VERTEX
  8
MY3DLAYER
10
-180.89145591729863
20
-129.06680139579657
30
-5.256039597060573e-06
 70
     32
  0
VERTEX
  8
MY3DLAYER
10
-181.18649197383215
20
-128.8080617184825
30
-5.256039597060573e-06
 70
     32
  0
VERTEX
  8
MY3DLAYER
10
-181.5127762608583
20
-128.5900455280029
30
-5.256039597060573e-06
 70
     32
  0
VERTEX
  8
MY3DLAYER
10
-181.86472596376302
20
-128.41648314182234
30
-5.256039597060573e-06
 70
     32
  0
VERTEX
  8
MY3DLAYER
10
-182.23631912555072
20
-128.290344260489
30
-5.256039597060573e-06
 70
     32
  0
VERTEX
  8
MY3DLAYER
10
-182.6211976841981
20
-128.2137871552348
30
-5.256039597060573e-06
 70
     32
  0
VERTEX
  8
MY3DLAYER
10
-183.0127762608583
20
-128.1881217393562
30
-5.256039597060573e-06
 70
     32
  0
VERTEX
  8
MY3DLAYER
10
-210.0127762608583
20
-128.1881217393562
30
-5.256039597060573e-06
 70
     32
  0
VERTEX
  8
MY3DLAYER
10
-210.0127762608583
20
-126.48812173935622
30
-5.256039597060573e-06
 70
     32
  0
VERTEX
  8
MY3DLAYER
10
-210.0127762608583
20
-123.6881217393562
30
-5.256039597060573e-06
 70
     32
  0
VERTEX
  8
MY3DLAYER
10
-210.03844167673685
20
-123.29654316269605
30
-5.256039597060573e-06
 70
     32
  0
VERTEX
  8
MY3DLAYER
10
-210.11499878199106
20
-122.91166460404864
30
-5.256039597060573e-06
 70
     32
  0
VERTEX
  8
MY3DLAYER
10
-210.24113766332442
20
-122.54007144226094
30
-5.256039597060573e-06
 70
     32
  0
VERTEX
  8
MY3DLAYER
10
-210.41470004950497
20
-122.1881217393562
30
-5.256039597060573e-06
 70
     32
  0
VERTEX
  8
MY3DLAYER
10
-210.6327162399846
20
-121.86183745233005
30
-5.256039597060573e-06
 70
     32
  0
VERTEX
  8
MY3DLAYER
10
-210.89145591729869
20
-121.56680139579657
30
-5.256039597060573e-06
 70
     32
  0
VERTEX
  8
MY3DLAYER
10
-211.18649197383212
20
-121.3080617184825
30
-5.256039597060573e-06
 70
     32
  0
VERTEX
  8
MY3DLAYER
10
-211.51277626085832
20
-121.0900455280029
30
-5.256039597060573e-06
 70
     32
  0
VERTEX
  8
MY3DLAYER
10
-211.86472596376302
20
-120.91648314182237
30
-5.256039597060573e-06
 70
     32
  0
VERTEX
  8
MY3DLAYER
10
-212.23631912555072
20
-120.79034426048902
30
-5.256039597060573e-06
 70
     32
  0
VERTEX
  8
MY3DLAYER
10
-212.6211976841981
20
-120.71378715523478
30
-5.256039597060573e-06
 70
     32
  0
VERTEX
  8
MY3DLAYER
10
-213.0127762608583
20
-120.6881217393562
30
-5.256039597060573e-06
 70
     32
  0
VERTEX
  8
MY3DLAYER
10
-250.0127762608583
20
-120.6881217393562
30
-5.256039597060573e-06
 70
     32
  0
VERTEX
  8
MY3DLAYER
10
-250.40435483751847
20
-120.71378715523478
30
-5.256039597060573e-06
 70
     32
  0
VERTEX
  8
MY3DLAYER
10
-250.78923339616586
20
-120.79034426048902
30
-5.256039597060573e-06
 70
     32
  0
VERTEX
  8
MY3DLAYER
10
-251.16082655795356
20
-120.91648314182237
30
-5.256039597060573e-06
 70
     32
  0
VERTEX
  8
MY3DLAYER
10
-251.5127762608583
20
-121.0900455280029
30
-5.256039597060573e-06
 70
     32
  0
VERTEX
  8
MY3DLAYER
10
-251.83906054788446
20
-121.3080617184825
30
-5.256039597060573e-06
 70
     32
  0
VERTEX
  8
MY3DLAYER
10
-252.13409660441795
20
-121.56680139579657
30
-5.256039597060573e-06
 70
     32
  0
VERTEX
  8
MY3DLAYER
10
-252.392836281732
20
-121.86183745233005
30
-5.256039597060573e-06
 70
     32
  0
VERTEX
  8
MY3DLAYER
10
-252.6108524722116
20
-122.1881217393562
30
-5.256039597060573e-06
 70
     32
  0
VERTEX
  8
MY3DLAYER
10
-252.78441485839215
20
-122.54007144226095
30
-5.256039597060573e-06
 70
     32
  0
VERTEX
  8
MY3DLAYER
10
-252.91055373972551
20
-122.91166460404864
30
-5.256039597060573e-06
 70
     32
  0
VERTEX
  8
MY3DLAYER
10
-252.98711084497972
20
-123.29654316269605
30
-5.256039597060573e-06
 70
     32
  0
VERTEX
  8
MY3DLAYER
10
-253.0127762608583
20
-123.68812173935622
30
-5.256039597060573e-06
 70
     32
  0
VERTEX
  8
MY3DLAYER
10
-253.0127762608583
20
-160.68812173935623
30
-5.256039597060573e-06
 70
     32
  0
VERTEX
  8
MY3DLAYER
10
-252.98711084497972
20
-161.07970031601636
30
-5.256039597060573e-06
 70
     32
  0
VERTEX
  8
MY3DLAYER
10
-252.91055373972551
20
-161.46457887466377
30
-5.256039597060573e-06
 70
     32
  0
VERTEX
  8
MY3DLAYER
10
-252.78441485839215
20
-161.8361720364515
30
-5.256039597060573e-06
 70
     32
  0
VERTEX
  8
MY3DLAYER
10
-252.6108524722116
20
-162.18812173935623
30
-5.256039597060573e-06
 70
     32
  0
VERTEX
  8
MY3DLAYER
10
-252.392836281732
20
-162.5144060263824
30
-5.256039597060573e-06
 70
     32
  0
VERTEX
  8
MY3DLAYER
10
-252.13409660441795
20
-162.80944208291587
30
-5.256039597060573e-06
 70
     32
  0
VERTEX
  8
MY3DLAYER
10
-251.83906054788446
20
-163.06818176022995
30
-5.256039597060573e-06
 70
     32
  0
VERTEX
  8
MY3DLAYER
10
-251.5127762608583
20
-163.28619795070955
30
-5.256039597060573e-06
 70
     32
  0
VERTEX
  8
MY3DLAYER
10
-251.16082655795356
20
-163.45976033689007
30
-5.256039597060573e-06
 70
     32
  0
VERTEX
  8
MY3DLAYER
10
-250.78923339616586
20
-163.58589921822343
30
-5.256039597060573e-06
 70
     32
  0
VERTEX
  8
MY3DLAYER
10
-250.40435483751847
20
-163.66245632347767
30
-5.256039597060573e-06
 70
     32
  0
VERTEX
  8
MY3DLAYER
10
-250.0127762608583
20
-163.6881217393562
30
-5.256039597060573e-06
 70
     32
  0
VERTEX
  8
MY3DLAYER
10
-213.0127762608583
20
-163.6881217393562
30
-5.256039597060573e-06
 70
     32
  0
VERTEX
  8
MY3DLAYER
10
-212.6211976841981
20
-163.66245632347767
30
-5.256039597060573e-06
 70
     32
  0
VERTEX
  8
MY3DLAYER
10
-212.23631912555072
20
-163.58589921822343
30
-5.256039597060573e-06
 70
     32
  0
VERTEX
  8
MY3DLAYER
10
-211.86472596376302
20
-163.45976033689007
30
-5.256039597060573e-06
 70
     32
  0
VERTEX
  8
MY3DLAYER
10
-211.51277626085832
20
-163.28619795070955
30
-5.256039597060573e-06
 70
     32
  0
VERTEX
  8
MY3DLAYER
10
-211.18649197383212
20
-163.06818176022995
30
-5.256039597060573e-06
 70
     32
  0
VERTEX
  8
MY3DLAYER
10
-210.89145591729869
20
-162.80944208291587
30
-5.256039597060573e-06
 70
     32
  0
VERTEX
  8
MY3DLAYER
10
-210.6327162399846
20
-162.5144060263824
30
-5.256039597060573e-06
 70
     32
  0
VERTEX
  8
MY3DLAYER
10
-210.41470004950497
20
-162.18812173935623
30
-5.256039597060573e-06
 70
     32
  0
VERTEX
  8
MY3DLAYER
10
-210.24113766332442
20
-161.8361720364515
30
-5.256039597060573e-06
 70
     32
  0
VERTEX
  8
MY3DLAYER
10
-210.11499878199106
20
-161.4645788746638
30
-5.256039597060573e-06
 70
     32
  0
VERTEX
  8
MY3DLAYER
10
-210.03844167673685
20
-161.07970031601636
30
-5.256039597060573e-06
 70
     32
  0
VERTEX
  8
MY3DLAYER
10
-210.0127762608583
20
-160.68812173935623
30
-5.256039597060573e-06
 70
     32
  0
VERTEX
  8
MY3DLAYER
10
-210.0127762608583
20
-148.18812173935623
30
-5.256039597060573e-06
 70
     32
  0
SEQEND
  0
POLYLINE
 8
Layer0
 66
     1
70
    8
 10
0.0
 20
 0.0
 30
0.0
  0
VERTEX
  8
MY3DLAYER
10
-231.51277626085832
20
-130.18812173935623
30
-5.256039597060573e-06
 70
     32
  0
VERTEX
  8
MY3DLAYER
10
-228.40694771962805
20
-130.59701182388739
30
-5.256039597060573e-06
 70
     32
  0
VERTEX
  8
MY3DLAYER
10
-225.51277626085832
20
-131.79581689394297
30
-5.256039597060573e-06
 70
     32
  0
VERTEX
  8
MY3DLAYER
10
-223.02749488661973
20
-133.70284036511768
30
-5.256039597060573e-06
 70
     32
  0
VERTEX
  8
MY3DLAYER
10
-221.12047141544502
20
-136.18812173935623
30
-5.256039597060573e-06
 70
     32
  0
VERTEX
  8
MY3DLAYER
10
-219.9216663453895
20
-139.082293198126
30
-5.256039597060573e-06
 70
     32
  0
VERTEX
  8
MY3DLAYER
10
-219.5127762608583
20
-142.1881217393562
30
-5.256039597060573e-06
 70
     32
  0
VERTEX
  8
MY3DLAYER
10
-219.9216663453895
20
-145.29395028058647
30
-5.256039597060573e-06
 70
     32
  0
VERTEX
  8
MY3DLAYER
10
-221.12047141544502
20
-148.18812173935623
30
-5.256039597060573e-06
 70
     32
  0
VERTEX
  8
MY3DLAYER
10
-223.02749488661973
20
-150.6734031135948
30
-5.256039597060573e-06
 70
     32
  0
VERTEX
  8
MY3DLAYER
10
-225.51277626085832
20
-152.58042658476947
30
-5.256039597060573e-06
 70
     32
  0
VERTEX
  8
MY3DLAYER
10
-228.40694771962805
20
-153.77923165482503
30
-5.256039597060573e-06
 70
     32
  0
VERTEX
  8
MY3DLAYER
10
-231.51277626085832
20
-154.1881217393562
30
-5.256039597060573e-06
 70
     32
  0
VERTEX
  8
MY3DLAYER
10
-234.61860480208856
20
-153.77923165482503
30
-5.256039597060573e-06
 70
     32
  0
VERTEX
  8
MY3DLAYER
10
-237.51277626085832
20
-152.58042658476947
30
-5.256039597060573e-06
 70
     32
  0
VERTEX
  8
MY3DLAYER
10
-239.99805763509687
20
-150.6734031135948
30
-5.256039597060573e-06
 70
     32
  0
VERTEX
  8
MY3DLAYER
10
-241.90508110627155
20
-148.1881217393562
30
-5.256039597060573e-06
 70
     32
  0
VERTEX
  8
MY3DLAYER
10
-243.10388617632714
20
-145.29395028058647
30
-5.256039597060573e-06
 70
     32
  0
VERTEX
  8
MY3DLAYER
10
-243.5127762608583
20
-142.1881217393562
30
-5.256039597060573e-06
 70
     32
  0
VERTEX
  8
MY3DLAYER
10
-243.10388617632714
20
-139.082293198126
30
-5.256039597060573e-06
 70
     32
  0
VERTEX
  8
MY3DLAYER
10
-241.90508110627155
20
-136.18812173935623
30
-5.256039597060573e-06
 70
     32
  0
VERTEX
  8
MY3DLAYER
10
-239.99805763509687
20
-133.70284036511768
30
-5.256039597060573e-06
 70
     32
  0
VERTEX
  8
MY3DLAYER
10
-237.51277626085832
20
-131.79581689394297
30
-5.256039597060573e-06
 70
     32
  0
VERTEX
  8
MY3DLAYER
10
-234.61860480208856
20
-130.59701182388739
30
-5.256039597060573e-06
 70
     32
  0
VERTEX
  8
MY3DLAYER
10
-231.51277626085832
20
-130.18812173935623
30
-5.256039597060573e-06
 70
     32
  0
SEQEND
  0
POLYLINE
 8
Layer0
 66
     1
70
    8
 10
0.0
 20
 0.0
 30
0.0
  0
VERTEX
  8
MY3DLAYER
10
-214.73998405472253
20
-127.96091394549202
30
-5.256039597060573e-06
 70
     32
  0
VERTEX
  8
MY3DLAYER
10
-215.1127762608583
20
-128.24696746616823
30
-5.256039597060573e-06
 70
     32
  0
VERTEX
  8
MY3DLAYER
10
-215.54690197967375
20
-128.42678822667654
30
-5.256039597060573e-06
 70
     32
  0
VERTEX
  8
MY3DLAYER
10
-216.01277626085832
20
-128.48812173935622
30
-5.256039597060573e-06
 70
     32
  0
VERTEX
  8
MY3DLAYER
10
-216.47865054204283
20
-128.42678822667654
30
-5.256039597060573e-06
 70
     32
  0
VERTEX
  8
MY3DLAYER
10
-216.9127762608583
20
-128.24696746616823
30
-5.256039597060573e-06
 70
     32
  0
VERTEX
  8
MY3DLAYER
10
-217.28556846699408
20
-127.96091394549202
30
-5.256039597060573e-06
 70
     32
  0
VERTEX
  8
MY3DLAYER
10
-217.57162198767028
20
-127.58812173935624
30
-5.256039597060573e-06
 70
     32
  0
VERTEX
  8
MY3DLAYER
10
-217.75144274817865
20
-127.15399602054076
30
-5.256039597060573e-06
 70
     32
  0
VERTEX
  8
MY3DLAYER
10
-217.81277626085827
20
-126.68812173935622
30
-5.256039597060573e-06
 70
     32
  0
VERTEX
  8
MY3DLAYER
10
-217.75144274817865
20
-126.22224745817168
30
-5.256039597060573e-06
 70
     32
  0
VERTEX
  8
MY3DLAYER
10
-217.57162198767028
20
-125.78812173935621
30
-5.256039597060573e-06
 70
     32
  0
VERTEX
  8
MY3DLAYER
10
-217.28556846699408
20
-125.41532953322043
30
-5.256039597060573e-06
 70
     32
  0
VERTEX
  8
MY3DLAYER
10
-216.9127762608583
20
-125.12927601254424
30
-5.256039597060573e-06
 70
     32
  0
VERTEX
  8
MY3DLAYER
10
-216.47865054204283
20
-124.94945525203589
30
-5.256039597060573e-06
 70
     32
  0
VERTEX
  8
MY3DLAYER
10
-216.01277626085832
20
-124.88812173935622
30
-5.256039597060573e-06
 70
     32
  0
VERTEX
  8
MY3DLAYER
10
-215.54690197967375
20
-124.94945525203589
30
-5.256039597060573e-06
 70
     32
  0
VERTEX
  8
MY3DLAYER
10
-215.1127762608583
20
-125.12927601254424
30
-5.256039597060573e-06
 70
     32
  0
VERTEX
  8
MY3DLAYER
10
-214.73998405472253
20
-125.41532953322043
30
-5.256039597060573e-06
 70
     32
  0
VERTEX
  8
MY3DLAYER
10
-214.45393053404632
20
-125.78812173935621
30
-5.256039597060573e-06
 70
     32
  0
VERTEX
  8
MY3DLAYER
10
-214.274109773538
20
-126.22224745817168
30
-5.256039597060573e-06
 70
     32
  0
VERTEX
  8
MY3DLAYER
10
-214.21277626085828
20
-126.68812173935622
30
-5.256039597060573e-06
 70
     32
  0
VERTEX
  8
MY3DLAYER
10
-214.274109773538
20
-127.15399602054076
30
-5.256039597060573e-06
 70
     32
  0
VERTEX
  8
MY3DLAYER
10
-214.45393053404632
20
-127.58812173935624
30
-5.256039597060573e-06
 70
     32
  0
VERTEX
  8
MY3DLAYER
10
-214.73998405472253
20
-127.96091394549202
30
-5.256039597060573e-06
 70
     32
  0
SEQEND
  0
POLYLINE
 8
Layer0
 66
     1
70
    8
 10
0.0
 20
 0.0
 30
0.0
  0
VERTEX
  8
MY3DLAYER
10
-216.9127762608583
20
-159.24696746616817
30
-5.256039597060573e-06
 70
     32
  0
VERTEX
  8
MY3DLAYER
10
-217.28556846699408
20
-158.960913945492
30
-5.256039597060573e-06
 70
     32
  0
VERTEX
  8
MY3DLAYER
10
-217.57162198767028
20
-158.5881217393562
30
-5.256039597060573e-06
 70
     32
  0
VERTEX
  8
MY3DLAYER
10
-217.75144274817865
20
-158.15399602054075
30
-5.256039597060573e-06
 70
     32
  0
VERTEX
  8
MY3DLAYER
10
-217.81277626085827
20
-157.6881217393562
30
-5.256039597060573e-06
 70
     32
  0
VERTEX
  8
MY3DLAYER
10
-217.75144274817865
20
-157.22224745817167
30
-5.256039597060573e-06
 70
     32
  0
VERTEX
  8
MY3DLAYER
10
-217.57162198767028
20
-156.7881217393562
30
-5.256039597060573e-06
 70
     32
  0
VERTEX
  8
MY3DLAYER
10
-217.28556846699408
20
-156.41532953322042
30
-5.256039597060573e-06
 70
     32
  0
VERTEX
  8
MY3DLAYER
10
-216.9127762608583
20
-156.12927601254424
30
-5.256039597060573e-06
 70
     32
  0
VERTEX
  8
MY3DLAYER
10
-216.47865054204283
20
-155.94945525203588
30
-5.256039597060573e-06
 70
     32
  0
VERTEX
  8
MY3DLAYER
10
-216.01277626085832
20
-155.88812173935622
30
-5.256039597060573e-06
 70
     32
  0
VERTEX
  8
MY3DLAYER
10
-215.54690197967375
20
-155.94945525203588
30
-5.256039597060573e-06
 70
     32
  0
VERTEX
  8
MY3DLAYER
10
-215.1127762608583
20
-156.12927601254424
30
-5.256039597060573e-06
 70
     32
  0
VERTEX
  8
MY3DLAYER
10
-214.73998405472253
20
-156.41532953322042
30
-5.256039597060573e-06
 70
     32
  0
VERTEX
  8
MY3DLAYER
10
-214.45393053404632
20
-156.7881217393562
30
-5.256039597060573e-06
 70
     32
  0
VERTEX
  8
MY3DLAYER
10
-214.274109773538
20
-157.22224745817167
30
-5.256039597060573e-06
 70
     32
  0
VERTEX
  8
MY3DLAYER
10
-214.21277626085828
20
-157.6881217393562
30
-5.256039597060573e-06
 70
     32
  0
VERTEX
  8
MY3DLAYER
10
-214.274109773538
20
-158.15399602054075
30
-5.256039597060573e-06
 70
     32
  0
VERTEX
  8
MY3DLAYER
10
-214.45393053404632
20
-158.5881217393562
30
-5.256039597060573e-06
 70
     32
  0
VERTEX
  8
MY3DLAYER
10
-214.73998405472253
20
-158.960913945492
30
-5.256039597060573e-06
 70
     32
  0
VERTEX
  8
MY3DLAYER
10
-215.1127762608583
20
-159.24696746616817
30
-5.256039597060573e-06
 70
     32
  0
VERTEX
  8
MY3DLAYER
10
-215.54690197967375
20
-159.42678822667654
30
-5.256039597060573e-06
 70
     32
  0
VERTEX
  8
MY3DLAYER
10
-216.01277626085832
20
-159.48812173935622
30
-5.256039597060573e-06
 70
     32
  0
VERTEX
  8
MY3DLAYER
10
-216.47865054204283
20
-159.42678822667654
30
-5.256039597060573e-06
 70
     32
  0
VERTEX
  8
MY3DLAYER
10
-216.9127762608583
20
-159.24696746616817
30
-5.256039597060573e-06
 70
     32
  0
SEQEND
  0
POLYLINE
 8
Layer0
 66
     1
70
    8
 10
0.0
 20
 0.0
 30
0.0
  0
VERTEX
  8
MY3DLAYER
10
-245.274109773538
20
-158.15399602054075
30
-5.256039597060573e-06
 70
     32
  0
VERTEX
  8
MY3DLAYER
10
-245.45393053404632
20
-158.5881217393562
30
-5.256039597060573e-06
 70
     32
  0
VERTEX
  8
MY3DLAYER
10
-245.7399840547225
20
-158.960913945492
30
-5.256039597060573e-06
 70
     32
  0
VERTEX
  8
MY3DLAYER
10
-246.11277626085828
20
-159.24696746616817
30
-5.256039597060573e-06
 70
     32
  0
VERTEX
  8
MY3DLAYER
10
-246.54690197967375
20
-159.42678822667654
30
-5.256039597060573e-06
 70
     32
  0
VERTEX
  8
MY3DLAYER
10
-247.01277626085832
20
-159.48812173935622
30
-5.256039597060573e-06
 70
     32
  0
VERTEX
  8
MY3DLAYER
10
-247.47865054204283
20
-159.42678822667654
30
-5.256039597060573e-06
 70
     32
  0
VERTEX
  8
MY3DLAYER
10
-247.9127762608583
20
-159.24696746616817
30
-5.256039597060573e-06
 70
     32
  0
VERTEX
  8
MY3DLAYER
10
-248.28556846699408
20
-158.960913945492
30
-5.256039597060573e-06
 70
     32
  0
VERTEX
  8
MY3DLAYER
10
-248.57162198767026
20
-158.5881217393562
30
-5.256039597060573e-06
 70
     32
  0
VERTEX
  8
MY3DLAYER
10
-248.75144274817862
20
-158.15399602054075
30
-5.256039597060573e-06
 70
     32
  0
VERTEX
  8
MY3DLAYER
10
-248.8127762608583
20
-157.6881217393562
30
-5.256039597060573e-06
 70
     32
  0
VERTEX
  8
MY3DLAYER
10
-248.75144274817862
20
-157.22224745817167
30
-5.256039597060573e-06
 70
     32
  0
VERTEX
  8
MY3DLAYER
10
-248.57162198767026
20
-156.7881217393562
30
-5.256039597060573e-06
 70
     32
  0
VERTEX
  8
MY3DLAYER
10
-248.28556846699408
20
-156.41532953322042
30
-5.256039597060573e-06
 70
     32
  0
VERTEX
  8
MY3DLAYER
10
-247.9127762608583
20
-156.12927601254424
30
-5.256039597060573e-06
 70
     32
  0
VERTEX
  8
MY3DLAYER
10
-247.47865054204283
20
-155.94945525203588
30
-5.256039597060573e-06
 70
     32
  0
VERTEX
  8
MY3DLAYER
10
-247.01277626085832
20
-155.88812173935622
30
-5.256039597060573e-06
 70
     32
  0
VERTEX
  8
MY3DLAYER
10
-246.54690197967375
20
-155.94945525203588
30
-5.256039597060573e-06
 70
     32
  0
VERTEX
  8
MY3DLAYER
10
-246.11277626085828
20
-156.12927601254424
30
-5.256039597060573e-06
 70
     32
  0
VERTEX
  8
MY3DLAYER
10
-245.7399840547225
20
-156.41532953322042
30
-5.256039597060573e-06
 70
     32
  0
VERTEX
  8
MY3DLAYER
10
-245.45393053404632
20
-156.7881217393562
30
-5.256039597060573e-06
 70
     32
  0
VERTEX
  8
MY3DLAYER
10
-245.274109773538
20
-157.22224745817167
30
-5.256039597060573e-06
 70
     32
  0
VERTEX
  8
MY3DLAYER
10
-245.2127762608583
20
-157.6881217393562
30
-5.256039597060573e-06
 70
     32
  0
VERTEX
  8
MY3DLAYER
10
-245.274109773538
20
-158.15399602054075
30
-5.256039597060573e-06
 70
     32
  0
SEQEND
  0
POLYLINE
 8
Layer0
 66
     1
70
    8
 10
0.0
 20
 0.0
 30
0.0
  0
VERTEX
  8
MY3DLAYER
10
-245.45393053404632
20
-125.78812173935621
30
-5.256039597060573e-06
 70
     32
  0
VERTEX
  8
MY3DLAYER
10
-245.274109773538
20
-126.22224745817168
30
-5.256039597060573e-06
 70
     32
  0
VERTEX
  8
MY3DLAYER
10
-245.2127762608583
20
-126.68812173935622
30
-5.256039597060573e-06
 70
     32
  0
VERTEX
  8
MY3DLAYER
10
-245.274109773538
20
-127.15399602054076
30
-5.256039597060573e-06
 70
     32
  0
VERTEX
  8
MY3DLAYER
10
-245.45393053404632
20
-127.58812173935624
30
-5.256039597060573e-06
 70
     32
  0
VERTEX
  8
MY3DLAYER
10
-245.7399840547225
20
-127.96091394549202
30
-5.256039597060573e-06
 70
     32
  0
VERTEX
  8
MY3DLAYER
10
-246.11277626085828
20
-128.24696746616823
30
-5.256039597060573e-06
 70
     32
  0
VERTEX
  8
MY3DLAYER
10
-246.54690197967375
20
-128.42678822667654
30
-5.256039597060573e-06
 70
     32
  0
VERTEX
  8
MY3DLAYER
10
-247.01277626085832
20
-128.48812173935622
30
-5.256039597060573e-06
 70
     32
  0
VERTEX
  8
MY3DLAYER
10
-247.47865054204283
20
-128.42678822667654
30
-5.256039597060573e-06
 70
     32
  0
VERTEX
  8
MY3DLAYER
10
-247.9127762608583
20
-128.24696746616823
30
-5.256039597060573e-06
 70
     32
  0
VERTEX
  8
MY3DLAYER
10
-248.28556846699408
20
-127.96091394549202
30
-5.256039597060573e-06
 70
     32
  0
VERTEX
  8
MY3DLAYER
10
-248.57162198767026
20
-127.58812173935624
30
-5.256039597060573e-06
 70
     32
  0
VERTEX
  8
MY3DLAYER
10
-248.75144274817862
20
-127.15399602054076
30
-5.256039597060573e-06
 70
     32
  0
VERTEX
  8
MY3DLAYER
10
-248.8127762608583
20
-126.68812173935622
30
-5.256039597060573e-06
 70
     32
  0
VERTEX
  8
MY3DLAYER
10
-248.75144274817862
20
-126.22224745817168
30
-5.256039597060573e-06
 70
     32
  0
VERTEX
  8
MY3DLAYER
10
-248.57162198767026
20
-125.78812173935621
30
-5.256039597060573e-06
 70
     32
  0
VERTEX
  8
MY3DLAYER
10
-248.28556846699408
20
-125.41532953322043
30
-5.256039597060573e-06
 70
     32
  0
VERTEX
  8
MY3DLAYER
10
-247.9127762608583
20
-125.12927601254424
30
-5.256039597060573e-06
 70
     32
  0
VERTEX
  8
MY3DLAYER
10
-247.47865054204283
20
-124.94945525203589
30
-5.256039597060573e-06
 70
     32
  0
VERTEX
  8
MY3DLAYER
10
-247.01277626085832
20
-124.88812173935622
30
-5.256039597060573e-06
 70
     32
  0
VERTEX
  8
MY3DLAYER
10
-246.54690197967375
20
-124.94945525203589
30
-5.256039597060573e-06
 70
     32
  0
VERTEX
  8
MY3DLAYER
10
-246.11277626085828
20
-125.12927601254424
30
-5.256039597060573e-06
 70
     32
  0
VERTEX
  8
MY3DLAYER
10
-245.7399840547225
20
-125.41532953322043
30
-5.256039597060573e-06
 70
     32
  0
VERTEX
  8
MY3DLAYER
10
-245.45393053404632
20
-125.78812173935621
30
-5.256039597060573e-06
 70
     32
  0
SEQEND
  0
POLYLINE
 8
Layer0
 66
     1
70
    8
 10
0.0
 20
 0.0
 30
0.0
  0
VERTEX
  8
MY3DLAYER
10
-184.17429862977326
20
-140.02659937044123
30
-5.256039597060573e-06
 70
     32
  0
VERTEX
  8
MY3DLAYER
10
-184.7127762608583
20
-140.43978778919575
30
-5.256039597060573e-06
 70
     32
  0
VERTEX
  8
MY3DLAYER
10
-185.33984674359175
20
-140.69952888770777
30
-5.256039597060573e-06
 70
     32
  0
VERTEX
  8
MY3DLAYER
10
-186.0127762608583
20
-140.78812173935623
30
-5.256039597060573e-06
 70
     32
  0
VERTEX
  8
MY3DLAYER
10
-186.68570577812486
20
-140.69952888770777
30
-5.256039597060573e-06
 70
     32
  0
VERTEX
  8
MY3DLAYER
10
-187.3127762608583
20
-140.43978778919575
30
-5.256039597060573e-06
 70
     32
  0
VERTEX
  8
MY3DLAYER
10
-187.85125389194332
20
-140.02659937044123
30
-5.256039597060573e-06
 70
     32
  0
VERTEX
  8
MY3DLAYER
10
-188.26444231069786
20
-139.48812173935622
30
-5.256039597060573e-06
 70
     32
  0
VERTEX
  8
MY3DLAYER
10
-188.52418340920988
20
-138.86105125662277
30
-5.256039597060573e-06
 70
     32
  0
VERTEX
  8
MY3DLAYER
10
-188.61277626085828
20
-138.18812173935623
30
-5.256039597060573e-06
 70
     32
  0
VERTEX
  8
MY3DLAYER
10
-188.52418340920988
20
-137.51519222208967
30
-5.256039597060573e-06
 70
     32
  0
VERTEX
  8
MY3DLAYER
10
-188.26444231069783
20
-136.88812173935622
30
-5.256039597060573e-06
 70
     32
  0
VERTEX
  8
MY3DLAYER
10
-187.85125389194332
20
-136.3496441082712
30
-5.256039597060573e-06
 70
     32
  0
VERTEX
  8
MY3DLAYER
10
-187.3127762608583
20
-135.9364556895167
30
-5.256039597060573e-06
 70
     32
  0
VERTEX
  8
MY3DLAYER
10
-186.68570577812486
20
-135.67671459100467
30
-5.256039597060573e-06
 70
     32
  0
VERTEX
  8
MY3DLAYER
10
-186.0127762608583
20
-135.5881217393562
30
-5.256039597060573e-06
 70
     32
  0
VERTEX
  8
MY3DLAYER
10
-185.33984674359175
20
-135.67671459100467
30
-5.256039597060573e-06
 70
     32
  0
VERTEX
  8
MY3DLAYER
10
-184.7127762608583
20
-135.9364556895167
30
-5.256039597060573e-06
 70
     32
  0
VERTEX
  8
MY3DLAYER
10
-184.17429862977326
20
-136.3496441082712
30
-5.256039597060573e-06
 70
     32
  0
VERTEX
  8
MY3DLAYER
10
-183.76111021101877
20
-136.88812173935622
30
-5.256039597060573e-06
 70
     32
  0
VERTEX
  8
MY3DLAYER
10
-183.50136911250672
20
-137.51519222208967
30
-5.256039597060573e-06
 70
     32
  0
VERTEX
  8
MY3DLAYER
10
-183.4127762608583
20
-138.18812173935623
30
-5.256039597060573e-06
 70
     32
  0
VERTEX
  8
MY3DLAYER
10
-183.50136911250672
20
-138.86105125662277
30
-5.256039597060573e-06
 70
     32
  0
VERTEX
  8
MY3DLAYER
10
-183.76111021101877
20
-139.48812173935622
30
-5.256039597060573e-06
 70
     32
  0
VERTEX
  8
MY3DLAYER
10
-184.17429862977326
20
-140.02659937044123
30
-5.256039597060573e-06
 70
     32
  0
SEQEND
  0
POLYLINE
 8
Layer0
 66
     1
70
    8
 10
0.0
 20
 0.0
 30
0.0
  0
VERTEX
  8
MY3DLAYER
10
-201.76111021101875
20
-136.88812173935622
30
-5.256039597060573e-06
 70
     32
  0
VERTEX
  8
MY3DLAYER
10
-201.50136911250672
20
-137.51519222208967
30
-5.256039597060573e-06
 70
     32
  0
VERTEX
  8
MY3DLAYER
10
-201.4127762608583
20
-138.18812173935623
30
-5.256039597060573e-06
 70
     32
  0
VERTEX
  8
MY3DLAYER
10
-201.50136911250672
20
-138.86105125662277
30
-5.256039597060573e-06
 70
     32
  0
VERTEX
  8
MY3DLAYER
10
-201.76111021101875
20
-139.48812173935622
30
-5.256039597060573e-06
 70
     32
  0
VERTEX
  8
MY3DLAYER
10
-202.1742986297733
20
-140.02659937044123
30
-5.256039597060573e-06
 70
     32
  0
VERTEX
  8
MY3DLAYER
10
-202.7127762608583
20
-140.43978778919575
30
-5.256039597060573e-06
 70
     32
  0
VERTEX
  8
MY3DLAYER
10
-203.33984674359175
20
-140.69952888770777
30
-5.256039597060573e-06
 70
     32
  0
VERTEX
  8
MY3DLAYER
10
-204.0127762608583
20
-140.78812173935623
30
-5.256039597060573e-06
 70
     32
  0
VERTEX
  8
MY3DLAYER
10
-204.68570577812483
20
-140.69952888770777
30
-5.256039597060573e-06
 70
     32
  0
VERTEX
  8
MY3DLAYER
10
-205.31277626085833
20
-140.43978778919575
30
-5.256039597060573e-06
 70
     32
  0
VERTEX
  8
MY3DLAYER
10
-205.85125389194332
20
-140.02659937044123
30
-5.256039597060573e-06
 70
     32
  0
VERTEX
  8
MY3DLAYER
10
-206.26444231069786
20
-139.48812173935622
30
-5.256039597060573e-06
 70
     32
  0
VERTEX
  8
MY3DLAYER
10
-206.52418340920985
20
-138.86105125662277
30
-5.256039597060573e-06
 70
     32
  0
VERTEX
  8
MY3DLAYER
10
-206.61277626085828
20
-138.18812173935623
30
-5.256039597060573e-06
 70
     32
  0
VERTEX
  8
MY3DLAYER
10
-206.52418340920985
20
-137.51519222208967
30
-5.256039597060573e-06
 70
     32
  0
VERTEX
  8
MY3DLAYER
10
-206.2644423106978
20
-136.88812173935622
30
-5.256039597060573e-06
 70
     32
  0
VERTEX
  8
MY3DLAYER
10
-205.85125389194332
20
-136.3496441082712
30
-5.256039597060573e-06
 70
     32
  0
VERTEX
  8
MY3DLAYER
10
-205.31277626085833
20
-135.9364556895167
30
-5.256039597060573e-06
 70
     32
  0
VERTEX
  8
MY3DLAYER
10
-204.68570577812483
20
-135.67671459100467
30
-5.256039597060573e-06
 70
     32
  0
VERTEX
  8
MY3DLAYER
10
-204.0127762608583
20
-135.5881217393562
30
-5.256039597060573e-06
 70
     32
  0
VERTEX
  8
MY3DLAYER
10
-203.33984674359175
20
-135.67671459100467
30
-5.256039597060573e-06
 70
     32
  0
VERTEX
  8
MY3DLAYER
10
-202.7127762608583
20
-135.9364556895167
30
-5.256039597060573e-06
 70
     32
  0
VERTEX
  8
MY3DLAYER
10
-202.1742986297733
20
-136.3496441082712
30
-5.256039597060573e-06
 70
     32
  0
VERTEX
  8
MY3DLAYER
10
-201.76111021101875
20
-136.88812173935622
30
-5.256039597060573e-06
 70
     32
  0
SEQEND
  0
POLYLINE
 8
Layer0
 66
     1
70
    8
 10
0.0
 20
 0.0
 30
0.0
  0
VERTEX
  8
MY3DLAYER
10
-309.88069359618936
20
-134.680001401362
30
-4.742477423558393e-06
 70
     32
  0
VERTEX
  8
MY3DLAYER
10
-309.88069359618936
20
-148.680001401362
30
-4.742477423558393e-06
 70
     32
  0
VERTEX
  8
MY3DLAYER
10
-309.8550281803108
20
-149.07157997802219
30
-4.742477423558393e-06
 70
     32
  0
VERTEX
  8
MY3DLAYER
10
-309.77847107505664
20
-149.45645853666957
30
-4.742477423558393e-06
 70
     32
  0
VERTEX
  8
MY3DLAYER
10
-309.6523321937233
20
-149.82805169845727
30
-4.742477423558393e-06
 70
     32
  0
VERTEX
  8
MY3DLAYER
10
-309.4787698075427
20
-150.18000140136203
30
-4.742477423558393e-06
 70
     32
  0
VERTEX
  8
MY3DLAYER
10
-309.26075361706313
20
-150.50628568838818
30
-4.742477423558393e-06
 70
     32
  0
VERTEX
  8
MY3DLAYER
10
-309.002013939749
20
-150.80132174492167
30
-4.742477423558393e-06
 70
     32
  0
VERTEX
  8
MY3DLAYER
10
-308.70697788321553
20
-151.06006142223575
30
-4.742477423558393e-06
 70
     32
  0
VERTEX
  8
MY3DLAYER
10
-308.3806935961895
20
-151.27807761271535
30
-4.742477423558393e-06
 70
     32
  0
VERTEX
  8
MY3DLAYER
10
-308.0287438932847
20
-151.4516399988959
30
-4.742477423558393e-06
 70
     32
  0
VERTEX
  8
MY3DLAYER
10
-307.6571507314969
20
-151.57777888022926
30
-4.742477423558393e-06
 70
     32
  0
VERTEX
  8
MY3DLAYER
10
-307.27227217284957
20
-151.65433598548347
30
-4.742477423558393e-06
 70
     32
  0
VERTEX
  8
MY3DLAYER
10
-306.8806935961894
20
-151.68000140136203
30
-4.742477423558393e-06
 70
     32
  0
VERTEX
  8
MY3DLAYER
10
-279.88069359618936
20
-151.680001401362
30
-4.74247741791846e-06
 70
     32
  0
VERTEX
  8
MY3DLAYER
10
-279.88069359618936
20
-160.68812173935623
30
-4.742477412278527e-06
 70
     32
  0
VERTEX
  8
MY3DLAYER
10
-279.85502818031074
20
-161.07970031601636
30
-4.742477412278527e-06
 70
     32
  0
VERTEX
  8
MY3DLAYER
10
-279.77847107505653
20
-161.46457887466377
30
-4.742477412278527e-06
 70
     32
  0
VERTEX
  8
MY3DLAYER
10
-279.65233219372317
20
-161.8361720364515
30
-4.742477412278527e-06
 70
     32
  0
VERTEX
  8
MY3DLAYER
10
-279.4787698075426
20
-162.18812173935623
30
-4.742477412278527e-06
 70
     32
  0
VERTEX
  8
MY3DLAYER
10
-279.260753617063
20
-162.51440602638237
30
-4.742477412278527e-06
 70
     32
  0
VERTEX
  8
MY3DLAYER
10
-279.002013939749
20
-162.80944208291584
30
-4.742477412278527e-06
 70
     32
  0
VERTEX
  8
MY3DLAYER
10
-278.7069778832155
20
-163.06818176022992
30
-4.742477412278527e-06
 70
     32
  0
VERTEX
  8
MY3DLAYER
10
-278.3806935961893
20
-163.28619795070952
30
-4.742477412278527e-06
 70
     32
  0
VERTEX
  8
MY3DLAYER
10
-278.02874389328457
20
-163.45976033689007
30
-4.74247741791846e-06
 70
     32
  0
VERTEX
  8
MY3DLAYER
10
-277.6571507314969
20
-163.58589921822343
30
-4.74247741791846e-06
 70
     32
  0
VERTEX
  8
MY3DLAYER
10
-277.27227217284945
20
-163.66245632347764
30
-4.74247741791846e-06
 70
     32
  0
VERTEX
  8
MY3DLAYER
10
-276.8806935961893
20
-163.6881217393562
30
-4.74247741791846e-06
 70
     32
  0
VERTEX
  8
MY3DLAYER
10
-262.88069359618925
20
-163.6881217393562
30
-4.742477412278527e-06
 70
     32
  0
VERTEX
  8
MY3DLAYER
10
-262.4891150195291
20
-163.66245632347764
30
-4.742477412278527e-06
 70
     32
  0
VERTEX
  8
MY3DLAYER
10
-262.10423646088174
20
-163.58589921822343
30
-4.742477412278527e-06
 70
     32
  0
VERTEX
  8
MY3DLAYER
10
-261.732643299094
20
-163.45976033689007
30
-4.742477412278527e-06
 70
     32
  0
VERTEX
  8
MY3DLAYER
10
-261.38069359618925
20
-163.28619795070952
30
-4.742477412278527e-06
 70
     32
  0
VERTEX
  8
MY3DLAYER
10
-261.0544093091631
20
-163.06818176022992
30
-4.742477412278527e-06
 70
     32
  0
VERTEX
  8
MY3DLAYER
10
-260.7593732526296
20
-162.80944208291587
30
-4.742477412278527e-06
 70
     32
  0
VERTEX
  8
MY3DLAYER
10
-260.5006335753156
20
-162.51440602638237
30
-4.742477412278527e-06
 70
     32
  0
VERTEX
  8
MY3DLAYER
10
-260.28261738483593
20
-162.18812173935623
30
-4.742477412278527e-06
 70
     32
  0
VERTEX
  8
MY3DLAYER
10
-260.10905499865544
20
-161.8361720364515
30
-4.742477412278527e-06
 70
     32
  0
VERTEX
  8
MY3DLAYER
10
-259.9829161173221
20
-161.46457887466377
30
-4.742477412278527e-06
 70
     32
  0
VERTEX
  8
MY3DLAYER
10
-259.9063590120678
20
-161.07970031601636
30
-4.742477412278527e-06
 70
     32
  0
VERTEX
  8
MY3DLAYER
10
-259.88069359618925
20
-160.68812173935623
30
-4.742477412278527e-06
 70
     32
  0
VERTEX
  8
MY3DLAYER
10
-259.88069359618925
20
-133.0799968399161
30
-4.742477412278527e-06
 70
     32
  0
VERTEX
  8
MY3DLAYER
10
-259.9063590120678
20
-132.68841826325593
30
-4.742477412278527e-06
 70
     32
  0
VERTEX
  8
MY3DLAYER
10
-259.9829161173221
20
-132.30353970460854
30
-4.742477412278527e-06
 70
     32
  0
VERTEX
  8
MY3DLAYER
10
-260.10905499865544
20
-131.93194654282084
30
-4.742477412278527e-06
 70
     32
  0
VERTEX
  8
MY3DLAYER
10
-260.28261738483593
20
-131.57999683991608
30
-4.742477412278527e-06
 70
     32
  0
VERTEX
  8
MY3DLAYER
10
-260.5006335753156
20
-131.2537125528899
30
-4.742477412278527e-06
 70
     32
  0
VERTEX
  8
MY3DLAYER
10
-260.7593732526296
20
-130.95867649635645
30
-4.742477412278527e-06
 70
     32
  0
VERTEX
  8
MY3DLAYER
10
-261.0544093091631
20
-130.6999368190424
30
-4.742477412278527e-06
 70
     32
  0
VERTEX
  8
MY3DLAYER
10
-261.38069359618925
20
-130.48192062856276
30
-4.742477412278527e-06
 70
     32
  0
VERTEX
  8
MY3DLAYER
10
-261.732643299094
20
-130.30835824238224
30
-4.742477412278527e-06
 70
     32
  0
VERTEX
  8
MY3DLAYER
10
-262.10423646088174
20
-130.18221936104888
30
-4.742477412278527e-06
 70
     32
  0
VERTEX
  8
MY3DLAYER
10
-262.4891150195291
20
-130.10566225579464
30
-4.742477412278527e-06
 70
     32
  0
VERTEX
  8
MY3DLAYER
10
-262.88069359618925
20
-130.0799968399161
30
-4.742477412278527e-06
 70
     32
  0
VERTEX
  8
MY3DLAYER
10
-279.88069359618936
20
-130.0799968399161
30
-4.74247741791846e-06
 70
     32
  0
VERTEX
  8
MY3DLAYER
10
-279.88069359618936
20
-131.680001401362
30
-4.74247741791846e-06
 70
     32
  0
VERTEX
  8
MY3DLAYER
10
-306.8806935961894
20
-131.68000140136198
30
-4.74247741791846e-06
 70
     32
  0
VERTEX
  8
MY3DLAYER
10
-307.27227217284957
20
-131.70566681724054
30
-4.74247741791846e-06
 70
     32
  0
VERTEX
  8
MY3DLAYER
10
-307.6571507314969
20
-131.78222392249478
30
-4.74247741791846e-06
 70
     32
  0
VERTEX
  8
MY3DLAYER
10
-308.0287438932847
20
-131.90836280382814
30
-4.74247741791846e-06
 70
     32
  0
VERTEX
  8
MY3DLAYER
10
-308.3806935961895
20
-132.08192519000866
30
-4.742477423558393e-06
 70
     32
  0
VERTEX
  8
MY3DLAYER
10
-308.70697788321553
20
-132.2999413804883
30
-4.742477423558393e-06
 70
     32
  0
VERTEX
  8
MY3DLAYER
10
-309.002013939749
20
-132.55868105780235
30
-4.742477423558393e-06
 70
     32
  0
VERTEX
  8
MY3DLAYER
10
-309.26075361706313
20
-132.85371711433584
30
-4.742477423558393e-06
 70
     32
  0
VERTEX
  8
MY3DLAYER
10
-309.4787698075427
20
-133.180001401362
30
-4.742477423558393e-06
 70
     32
  0
VERTEX
  8
MY3DLAYER
10
-309.6523321937233
20
-133.5319511042667
30
-4.742477423558393e-06
 70
     32
  0
VERTEX
  8
MY3DLAYER
10
-309.77847107505664
20
-133.90354426605444
30
-4.742477423558393e-06
 70
     32
  0
VERTEX
  8
MY3DLAYER
10
-309.8550281803108
20
-134.28842282470185
30
-4.742477423558393e-06
 70
     32
  0
VERTEX
  8
MY3DLAYER
10
-309.88069359618936
20
-134.680001401362
30
-4.742477423558393e-06
 70
     32
  0
SEQEND
  0
POLYLINE
 8
Layer0
 66
     1
70
    8
 10
0.0
 20
 0.0
 30
0.0
  0
VERTEX
  8
MY3DLAYER
10
-268.0422159651043
20
-147.51847903244703
30
-4.74247741791846e-06
 70
     32
  0
VERTEX
  8
MY3DLAYER
10
-268.5806935961893
20
-147.93166745120152
30
-4.74247741791846e-06
 70
     32
  0
VERTEX
  8
MY3DLAYER
10
-269.2077640789227
20
-148.19140854971357
30
-4.74247741791846e-06
 70
     32
  0
VERTEX
  8
MY3DLAYER
10
-269.88069359618925
20
-148.280001401362
30
-4.74247741791846e-06
 70
     32
  0
VERTEX
  8
MY3DLAYER
10
-270.55362311345584
20
-148.19140854971357
30
-4.74247741791846e-06
 70
     32
  0
VERTEX
  8
MY3DLAYER
10
-271.1806935961893
20
-147.93166745120152
30
-4.74247741791846e-06
 70
     32
  0
VERTEX
  8
MY3DLAYER
10
-271.7191712272743
20
-147.51847903244703
30
-4.74247741791846e-06
 70
     32
  0
VERTEX
  8
MY3DLAYER
10
-272.1323596460289
20
-146.980001401362
30
-4.74247741791846e-06
 70
     32
  0
VERTEX
  8
MY3DLAYER
10
-272.39210074454087
20
-146.35293091862854
30
-4.74247741791846e-06
 70
     32
  0
VERTEX
  8
MY3DLAYER
10
-272.4806935961893
20
-145.680001401362
30
-4.74247741791846e-06
 70
     32
  0
VERTEX
  8
MY3DLAYER
10
-272.39210074454087
20
-145.00707188409547
30
-4.74247741791846e-06
 70
     32
  0
VERTEX
  8
MY3DLAYER
10
-272.1323596460289
20
-144.380001401362
30
-4.74247741791846e-06
 70
     32
  0
VERTEX
  8
MY3DLAYER
10
-271.7191712272743
20
-143.84152377027698
30
-4.74247741791846e-06
 70
     32
  0
VERTEX
  8
MY3DLAYER
10
-271.1806935961893
20
-143.42833535152246
30
-4.74247741791846e-06
 70
     32
  0
VERTEX
  8
MY3DLAYER
10
-270.55362311345584
20
-143.16859425301044
30
-4.74247741791846e-06
 70
     32
  0
VERTEX
  8
MY3DLAYER
10
-269.88069359618925
20
-143.080001401362
30
-4.74247741791846e-06
 70
     32
  0
VERTEX
  8
MY3DLAYER
10
-269.2077640789227
20
-143.16859425301044
30
-4.74247741791846e-06
 70
     32
  0
VERTEX
  8
MY3DLAYER
10
-268.5806935961893
20
-143.42833535152246
30
-4.74247741791846e-06
 70
     32
  0
VERTEX
  8
MY3DLAYER
10
-268.0422159651043
20
-143.84152377027698
30
-4.74247741791846e-06
 70
     32
  0
VERTEX
  8
MY3DLAYER
10
-267.62902754634973
20
-144.380001401362
30
-4.74247741791846e-06
 70
     32
  0
VERTEX
  8
MY3DLAYER
10
-267.36928644783774
20
-145.00707188409547
30
-4.74247741791846e-06
 70
     32
  0
VERTEX
  8
MY3DLAYER
10
-267.28069359618934
20
-145.680001401362
30
-4.74247741791846e-06
 70
     32
  0
VERTEX
  8
MY3DLAYER
10
-267.36928644783774
20
-146.35293091862854
30
-4.74247741791846e-06
 70
     32
  0
VERTEX
  8
MY3DLAYER
10
-267.62902754634973
20
-146.980001401362
30
-4.74247741791846e-06
 70
     32
  0
VERTEX
  8
MY3DLAYER
10
-268.0422159651043
20
-147.51847903244703
30
-4.74247741791846e-06
 70
     32
  0
SEQEND
  0
POLYLINE
 8
Layer0
 66
     1
70
    8
 10
0.0
 20
 0.0
 30
0.0
  0
VERTEX
  8
MY3DLAYER
10
-287.71917122727444
20
-139.841523770277
30
-4.74247741791846e-06
 70
     32
  0
VERTEX
  8
MY3DLAYER
10
-287.18069359618937
20
-139.42833535152246
30
-4.74247741791846e-06
 70
     32
  0
VERTEX
  8
MY3DLAYER
10
-286.5536231134559
20
-139.16859425301047
30
-4.74247741791846e-06
 70
     32
  0
VERTEX
  8
MY3DLAYER
10
-285.8806935961894
20
-139.080001401362
30
-4.74247741791846e-06
 70
     32
  0
VERTEX
  8
MY3DLAYER
10
-285.2077640789228
20
-139.16859425301047
30
-4.74247741791846e-06
 70
     32
  0
VERTEX
  8
MY3DLAYER
10
-284.58069359618935
20
-139.42833535152246
30
-4.74247741791846e-06
 70
     32
  0
VERTEX
  8
MY3DLAYER
10
-284.0422159651044
20
-139.841523770277
30
-4.74247741791846e-06
 70
     32
  0
VERTEX
  8
MY3DLAYER
10
-283.6290275463498
20
-140.380001401362
30
-4.74247741791846e-06
 70
     32
  0
VERTEX
  8
MY3DLAYER
10
-283.3692864478378
20
-141.00707188409547
30
-4.74247741791846e-06
 70
     32
  0
VERTEX
  8
MY3DLAYER
10
-283.2806935961894
20
-141.680001401362
30
-4.74247741791846e-06
 70
     32
  0
VERTEX
  8
MY3DLAYER
10
-283.3692864478378
20
-142.35293091862857
30
-4.74247741791846e-06
 70
     32
  0
VERTEX
  8
MY3DLAYER
10
-283.6290275463498
20
-142.980001401362
30
-4.74247741791846e-06
 70
     32
  0
VERTEX
  8
MY3DLAYER
10
-284.0422159651044
20
-143.51847903244703
30
-4.74247741791846e-06
 70
     32
  0
VERTEX
  8
MY3DLAYER
10
-284.58069359618935
20
-143.93166745120155
30
-4.74247741791846e-06
 70
     32
  0
VERTEX
  8
MY3DLAYER
10
-285.2077640789228
20
-144.19140854971357
30
-4.74247741791846e-06
 70
     32
  0
VERTEX
  8
MY3DLAYER
10
-285.8806935961894
20
-144.28000140136203
30
-4.74247741791846e-06
 70
     32
  0
VERTEX
  8
MY3DLAYER
10
-286.5536231134559
20
-144.19140854971357
30
-4.74247741791846e-06
 70
     32
  0
VERTEX
  8
MY3DLAYER
10
-287.18069359618937
20
-143.93166745120155
30
-4.74247741791846e-06
 70
     32
  0
VERTEX
  8
MY3DLAYER
10
-287.71917122727444
20
-143.51847903244703
30
-4.74247741791846e-06
 70
     32
  0
VERTEX
  8
MY3DLAYER
10
-288.13235964602893
20
-142.980001401362
30
-4.74247741791846e-06
 70
     32
  0
VERTEX
  8
MY3DLAYER
10
-288.3921007445409
20
-142.35293091862857
30
-4.74247741791846e-06
 70
     32
  0
VERTEX
  8
MY3DLAYER
10
-288.4806935961894
20
-141.680001401362
30
-4.74247741791846e-06
 70
     32
  0
VERTEX
  8
MY3DLAYER
10
-288.3921007445409
20
-141.00707188409547
30
-4.74247741791846e-06
 70
     32
  0
VERTEX
  8
MY3DLAYER
10
-288.13235964602893
20
-140.380001401362
30
-4.74247741791846e-06
 70
     32
  0
VERTEX
  8
MY3DLAYER
10
-287.71917122727444
20
-139.841523770277
30
-4.74247741791846e-06
 70
     32
  0
SEQEND
  0
POLYLINE
 8
Layer0
 66
     1
70
    8
 10
0.0
 20
 0.0
 30
0.0
  0
VERTEX
  8
MY3DLAYER
10
-303.88069359618936
20
-144.28000140136203
30
-4.74247741791846e-06
 70
     32
  0
VERTEX
  8
MY3DLAYER
10
-304.55362311345596
20
-144.19140854971357
30
-4.74247741791846e-06
 70
     32
  0
VERTEX
  8
MY3DLAYER
10
-305.18069359618937
20
-143.93166745120155
30
-4.74247741791846e-06
 70
     32
  0
VERTEX
  8
MY3DLAYER
10
-305.7191712272744
20
-143.51847903244703
30
-4.74247741791846e-06
 70
     32
  0
VERTEX
  8
MY3DLAYER
10
-306.13235964602893
20
-142.980001401362
30
-4.74247741791846e-06
 70
     32
  0
VERTEX
  8
MY3DLAYER
10
-306.392100744541
20
-142.35293091862857
30
-4.74247741791846e-06
 70
     32
  0
VERTEX
  8
MY3DLAYER
10
-306.48069359618944
20
-141.680001401362
30
-4.74247741791846e-06
 70
     32
  0
VERTEX
  8
MY3DLAYER
10
-306.392100744541
20
-141.00707188409547
30
-4.74247741791846e-06
 70
     32
  0
VERTEX
  8
MY3DLAYER
10
-306.13235964602893
20
-140.380001401362
30
-4.74247741791846e-06
 70
     32
  0
VERTEX
  8
MY3DLAYER
10
-305.7191712272744
20
-139.841523770277
30
-4.74247741791846e-06
 70
     32
  0
VERTEX
  8
MY3DLAYER
10
-305.18069359618937
20
-139.42833535152246
30
-4.74247741791846e-06
 70
     32
  0
VERTEX
  8
MY3DLAYER
10
-304.55362311345596
20
-139.16859425301047
30
-4.74247741791846e-06
 70
     32
  0
VERTEX
  8
MY3DLAYER
10
-303.88069359618936
20
-139.080001401362
30
-4.74247741791846e-06
 70
     32
  0
VERTEX
  8
MY3DLAYER
10
-303.2077640789228
20
-139.16859425301047
30
-4.74247741791846e-06
 70
     32
  0
VERTEX
  8
MY3DLAYER
10
-302.5806935961894
20
-139.42833535152246
30
-4.74247741791846e-06
 70
     32
  0
VERTEX
  8
MY3DLAYER
10
-302.0422159651044
20
-139.841523770277
30
-4.74247741791846e-06
 70
     32
  0
VERTEX
  8
MY3DLAYER
10
-301.62902754634985
20
-140.380001401362
30
-4.74247741791846e-06
 70
     32
  0
VERTEX
  8
MY3DLAYER
10
-301.3692864478378
20
-141.00707188409547
30
-4.74247741791846e-06
 70
     32
  0
VERTEX
  8
MY3DLAYER
10
-301.28069359618945
20
-141.680001401362
30
-4.74247741791846e-06
 70
     32
  0
VERTEX
  8
MY3DLAYER
10
-301.3692864478378
20
-142.35293091862857
30
-4.74247741791846e-06
 70
     32
  0
VERTEX
  8
MY3DLAYER
10
-301.62902754634985
20
-142.980001401362
30
-4.74247741791846e-06
 70
     32
  0
VERTEX
  8
MY3DLAYER
10
-302.0422159651044
20
-143.51847903244703
30
-4.74247741791846e-06
 70
     32
  0
VERTEX
  8
MY3DLAYER
10
-302.5806935961894
20
-143.93166745120155
30
-4.74247741791846e-06
 70
     32
  0
VERTEX
  8
MY3DLAYER
10
-303.2077640789228
20
-144.19140854971357
30
-4.74247741791846e-06
 70
     32
  0
VERTEX
  8
MY3DLAYER
10
-303.88069359618936
20
-144.28000140136203
30
-4.74247741791846e-06
 70
     32
  0
SEQEND
 0
ENDSEC
 0
EOF
